<?xml version="1.0" encoding="utf-8"?>
<!-- Generator: Adobe Illustrator 19.2.1, SVG Export Plug-In . SVG Version: 6.00 Build 0)  -->
<svg version="1.1" id="layer" xmlns="http://www.w3.org/2000/svg" xmlns:xlink="http://www.w3.org/1999/xlink" x="0px" y="0px"
	 viewBox="0 150 652 400" style="enable-background:new 0 0 652 652;" xml:space="preserve">
<g>
	<path d="M537.8,378.4h73.6v-1.5h-73.6V378.4z M98.8,378.4H25.2v-1.5h73.6V378.4z M513.9,379v-7.3
		c0-0.8,0.1-1.1,0.3-1.3c0.2-0.2,0.7-0.3,1.6-0.3c2.3,0,4.4,1.2,4.4,4.4c0,1.6-0.5,2.8-1.6,3.7c-0.8,0.6-1.8,0.9-3.3,0.9H513.9z
		 M526.7,387.9c-0.7-0.2-1.4-0.5-2.2-1.4c-0.7-0.7-1.4-1.6-2.5-3.1c-0.9-1.4-2.2-3.3-2.7-4.3c2.2-0.9,3.9-2.5,3.9-5
		c0-1.8-0.8-3.2-2-3.9c-1.2-0.8-2.6-1-5-1h-7.8v0.9c2.4,0.2,2.6,0.3,2.6,2.9v11.8c0,2.5-0.3,2.7-2.8,2.9v0.9h8.3v-0.9
		c-2.4-0.2-2.7-0.4-2.7-2.9V380h0.8c1.6,0,2.1,0.4,2.7,1.2c0.9,1.4,1.9,3.2,3,4.7c1.4,2,2.7,2.6,5.1,2.7c0.4,0.1,0.7,0.1,1.1,0.1
		L526.7,387.9z M498,372.7L498,372.7c-1,2.5-2,5-2.9,7.4h5.6L498,372.7z M501,388.4v-0.9c1.9-0.3,2.2-0.5,1.8-1.7
		c-0.4-1.2-1-2.7-1.6-4.4h-6.6c-0.5,1.4-0.9,2.5-1.3,3.7c-0.6,1.8-0.4,2.2,1.9,2.4v0.9h-6.7v-0.9c2-0.3,2.4-0.5,3.5-3.2l6.4-15.6
		l1.1-0.3c2,5.3,3.9,10.6,5.9,15.8c1,2.6,1.4,2.9,3.4,3.2v0.9H501z M478.1,378.7h1.3c3.7,0,5.8,1.4,5.8,4.4c0,3.1-2.2,4.3-4.5,4.3
		c-1.9,0-2.5-0.5-2.5-2.8V378.7z M478.1,377.6v-5.8c0-0.9,0.1-1.3,0.4-1.4c0.3-0.2,1-0.4,1.7-0.4c2.8,0,4,1.7,4,3.9
		c0,2.5-1.4,3.8-4.7,3.8H478.1z M482.9,377.9c1.8-0.4,4.2-1.6,4.2-4.4c0-1.4-0.6-2.7-1.7-3.4c-1-0.7-2.4-1-4.7-1h-8.1v0.9
		c2.4,0.2,2.6,0.3,2.6,2.9v11.9c0,2.5-0.2,2.7-2.8,2.9v0.9h7c2.4,0,4.5-0.3,6.1-1.2c1.8-1,2.9-2.5,2.9-4.5c0-3-2.4-4.3-5.5-4.7
		V377.9z M451.1,369.8c-1.4,0-2.5,1.2-2.4,3c0,1.5,0.9,2.6,2.8,4c1.4-1,2.2-2.2,2.2-3.8C453.7,371.2,452.6,369.8,451.1,369.8
		L451.1,369.8z M451,386.7c1.9,0,3.8-1.3,4.7-2.5c-1.7-1.8-3.6-3.6-6.4-5.7c-1.8,1.3-2.5,2.6-2.5,4C446.8,385.3,449,386.7,451,386.7
		L451,386.7z M464.5,376.5c-2.1,0.2-2.6,0.8-3.6,2.2c-0.8,1.1-1.6,2.4-2.6,3.9c1.4,1.3,4.1,4.2,5.1,6.1l-0.2,0.3
		c-1.9-0.1-3.6-0.8-4-1.2c-0.4-0.4-1.6-1.8-2.6-2.8c-2.2,2.8-4.2,3.9-6.4,3.9c-3.9,0-6.1-2.8-6.1-5.5c0-2.7,1.9-3.8,4.5-5.7
		c-1.4-1.3-2.2-2.5-2.2-4.2c0-2.7,2.4-4.8,5.1-4.8c2.6,0,4.6,1.7,4.6,4.2c0,1.2-0.6,2-1.3,2.6c-0.6,0.5-1.3,1-2.5,1.8
		c1,0.8,3.2,2.6,5.1,4.5c0.7-1,1.2-2,1.8-3.3c0.5-1.4,0.3-1.7-1.9-2l0-0.9h7.1V376.5z M433.4,373.8c-0.1-1.8-0.3-4.1-0.3-5.5h-0.6
		c-0.5,0.6-0.8,0.7-1.6,0.7h-12.4c-0.9,0-1.3,0-1.7-0.7h-0.6c-0.1,1.6-0.2,3.6-0.3,5.6h0.9c0.4-1.4,0.6-2.3,1-2.8
		c0.4-0.6,1.1-0.9,3.7-0.9h1.8v14.5c0,2.4-0.3,2.7-3.1,2.9v0.9h9v-0.9c-2.9-0.2-3.2-0.5-3.2-2.9v-14.5h2.1c2.3,0,2.9,0.2,3.4,0.9
		c0.4,0.5,0.7,1.3,1,2.8L433.4,373.8z M414.2,369.9c-1.7,0.1-2.4,0.4-2.6,1.8c-0.1,1-0.2,2.3-0.2,5.1v11.9h-1l-13.4-15.5h0l0,7.3
		c0,2.8,0.1,4.2,0.2,5c0.1,1.5,0.8,1.9,2.9,2.1v0.9h-7.3v-0.9c1.7-0.1,2.5-0.5,2.7-2c0.1-0.9,0.2-2.3,0.2-5.1v-6.4
		c0-2.2-0.1-2.4-0.6-3.1c-0.6-0.7-1.3-1-2.7-1.1V369h4.7l13,14.7h0.1v-7c0-2.8-0.1-4.1-0.2-5c-0.1-1.4-0.9-1.8-3-1.9V369h7.3V369.9z
		 M383.2,380.1h-5.6c0.9-2.4,1.9-5,2.9-7.4h0.1L383.2,380.1z M391.2,388.4v-0.9c-2-0.2-2.4-0.5-3.4-3.2c-2-5.2-4-10.5-5.9-15.8
		l-1.1,0.3l-6.4,15.6c-1.1,2.6-1.5,2.8-3.5,3.2v0.9h6.7v-0.9c-2.3-0.2-2.5-0.6-1.9-2.4c0.4-1.2,0.8-2.3,1.3-3.7h6.6
		c0.6,1.7,1.2,3.2,1.6,4.4c0.4,1.2,0.2,1.5-1.7,1.7v0.9H391.2z M359,379c1.5,0,2.5-0.3,3.3-0.9c1.2-0.9,1.6-2.1,1.6-3.7
		c0-3.2-2.1-4.4-4.4-4.4c-0.9,0-1.4,0.1-1.6,0.3c-0.2,0.2-0.3,0.5-0.3,1.3v7.3H359z M370.3,388.7c-0.4,0-0.7,0-1.1-0.1
		c-2.5-0.1-3.7-0.8-5.1-2.7c-1-1.4-2-3.3-3-4.7c-0.6-0.8-1.1-1.2-2.6-1.2h-0.9v4.7c0,2.5,0.3,2.7,2.7,2.9v0.9h-8.3v-0.9
		c2.5-0.2,2.8-0.4,2.8-2.9v-11.8c0-2.5-0.3-2.7-2.6-2.9V369h7.8c2.3,0,3.8,0.3,5,1c1.2,0.8,2,2.1,2,3.9c0,2.6-1.7,4.1-3.9,5
		c0.5,1,1.8,2.9,2.7,4.3c1.1,1.6,1.8,2.4,2.5,3.1c0.8,0.9,1.4,1.2,2.1,1.4L370.3,388.7z M350.3,369H343v0.9c2.1,0.1,2.8,0.5,3,1.7
		c0.2,0.9,0.2,2.1,0.2,4.8v2.3c0,5-1.5,8.4-5.8,8.4c-3.7,0-5.8-2.7-5.8-7.6V373c0-2.8,0.3-3,2.6-3.1V369h-8.2v0.9
		c2.4,0.2,2.7,0.3,2.7,3.1v7.1c0,3.6,0.9,5.9,2.8,7.2c1.4,1.1,3.1,1.5,5,1.5c2.1,0,4.2-0.7,5.6-2.1c1.8-1.8,2.3-4.4,2.3-8v-2.3
		c0-2.7,0.1-3.9,0.2-4.7c0.1-1.2,0.9-1.7,2.7-1.8V369z M318.6,372.7L318.6,372.7c-1.1,2.5-2,5-2.9,7.4h5.6L318.6,372.7z
		 M321.6,388.4v-0.9c1.9-0.3,2.2-0.5,1.7-1.7c-0.4-1.2-1-2.7-1.6-4.4h-6.5c-0.5,1.4-0.9,2.5-1.3,3.7c-0.7,1.8-0.4,2.2,1.9,2.4v0.9
		H309v-0.9c2-0.3,2.4-0.5,3.5-3.2l6.4-15.6l1.1-0.3c2,5.3,3.9,10.6,5.9,15.8c1,2.6,1.4,2.9,3.4,3.2v0.9H321.6z M309.9,373.8
		c-0.1-1.8-0.3-4.1-0.3-5.5H309c-0.5,0.6-0.8,0.7-1.6,0.7H295c-0.9,0-1.3,0-1.7-0.7h-0.7c-0.1,1.6-0.2,3.6-0.3,5.6h0.9
		c0.4-1.4,0.6-2.3,1.1-2.8c0.4-0.6,1-0.9,3.7-0.9h1.8v14.5c0,2.4-0.3,2.7-3.1,2.9v0.9h9v-0.9c-2.9-0.2-3.2-0.5-3.2-2.9v-14.5h2.1
		c2.3,0,2.9,0.2,3.4,0.9c0.4,0.5,0.7,1.3,1.1,2.8L309.9,373.8z M288.9,373.7c-0.5-1.9-1.5-4.1-4-4.1c-2.3,0-3.4,1.6-3.4,3.2
		c0,2.1,1.4,3.1,3.9,4.3c2.6,1.3,5.3,2.7,5.3,6c0,3.2-2.7,5.8-6.9,5.8c-1.3,0-2.3-0.2-3.1-0.5c-0.8-0.3-1.2-0.5-1.5-0.6
		c-0.2-0.6-0.6-3.3-0.8-4.7l0.9-0.3c0.5,1.9,2,5,5.1,5c2.2,0,3.5-1.4,3.5-3.5c0-2.2-1.6-3.2-4-4.4c-2.1-1.1-5-2.6-5-5.8
		c0-3,2.4-5.4,6.4-5.4c1.4,0,2.8,0.4,4,0.7c0.1,1.1,0.3,2.3,0.5,4.2L288.9,373.7z M275.6,383.5c-0.5,1.2-1,2.2-1.6,2.9
		c-0.7,0.8-1.6,1-3.8,1c-1.4,0-2.5,0-3.1-0.3c-0.6-0.4-0.7-1.1-0.7-2.5V379h2.8c2.7,0,2.9,0.2,3.3,2.3h0.9v-5.9h-0.9
		c-0.4,2-0.6,2.3-3.3,2.3h-2.8v-6.7c0-0.9,0.1-1,1.1-1h2.3c2.1,0,2.9,0.2,3.4,0.8c0.4,0.7,0.7,1.3,1,2.6l0.9-0.1
		c-0.1-1.7-0.2-3.6-0.3-4.4h-13.8v0.9c2.4,0.2,2.6,0.3,2.6,3v11.7c0,2.4-0.3,2.7-3,2.9v0.9h15c0.3-1,0.9-3.7,1.1-4.8L275.6,383.5z
		 M248.3,379c1.5,0,2.5-0.3,3.3-0.9c1.2-0.9,1.6-2.1,1.6-3.7c0-3.2-2.1-4.4-4.4-4.4c-0.9,0-1.4,0.1-1.6,0.3
		c-0.2,0.2-0.3,0.5-0.3,1.3v7.3H248.3z M259.7,388.7c-0.4,0-0.7,0-1.1-0.1c-2.5-0.1-3.7-0.8-5.1-2.7c-1.1-1.4-2.1-3.3-3-4.7
		c-0.6-0.8-1.1-1.2-2.7-1.2H247v4.7c0,2.5,0.3,2.7,2.7,2.9v0.9h-8.3v-0.9c2.5-0.2,2.8-0.4,2.8-2.9v-11.8c0-2.5-0.3-2.7-2.6-2.9V369
		h7.8c2.3,0,3.8,0.3,5,1c1.2,0.8,2,2.1,2,3.9c0,2.6-1.7,4.1-3.9,5c0.5,1,1.8,2.9,2.7,4.3c1.1,1.6,1.7,2.4,2.5,3.1
		c0.8,0.9,1.4,1.2,2.1,1.4L259.7,388.7z M231.4,369h-7.3v0.9c2.2,0.1,2.9,0.5,3.1,1.9c0.1,0.8,0.2,2.2,0.2,5v7h-0.1l-13-14.7h-4.7
		v0.9c1.4,0.1,2.1,0.3,2.7,1.1c0.5,0.7,0.7,0.9,0.7,3.1v6.4c0,2.8-0.1,4.2-0.2,5.1c-0.1,1.5-0.9,1.9-2.7,2v0.9h7.3v-0.9
		c-2.1-0.2-2.8-0.5-2.9-2.1c-0.1-0.9-0.2-2.3-0.2-5l0-7.3h0l13.4,15.5h1v-11.9c0-2.8,0.1-4.1,0.2-5.1c0.1-1.4,0.9-1.7,2.6-1.8V369z
		 M197.7,372.7L197.7,372.7c-1.1,2.5-2,5-2.9,7.4h5.6L197.7,372.7z M200.7,388.4v-0.9c1.9-0.3,2.2-0.5,1.8-1.7
		c-0.4-1.2-1-2.7-1.6-4.4h-6.5c-0.5,1.4-0.9,2.5-1.3,3.7c-0.7,1.8-0.4,2.2,1.9,2.4v0.9h-6.7v-0.9c2-0.3,2.4-0.5,3.5-3.2l6.4-15.6
		l1.1-0.3c2,5.3,3.9,10.6,5.9,15.8c1,2.6,1.4,2.9,3.4,3.2v0.9H200.7z M187.5,388.4v-0.9c-2.5-0.2-2.8-0.4-2.8-2.9v-11.8
		c0-2.6,0.3-2.8,2.8-2.9V369h-8.3v0.9c2.5,0.2,2.8,0.3,2.8,2.9v11.8c0,2.6-0.3,2.8-2.8,2.9v0.9H187.5z M177.7,383.6
		c-0.2,1-0.8,3.9-1.2,4.8h-14.1v-0.9c2.6-0.2,2.9-0.4,2.9-3v-11.7c0-2.6-0.2-2.8-2.7-2.9V369h8.3v0.9c-2.4,0.2-2.7,0.3-2.7,2.9v11.6
		c0,1.6,0.2,2.2,0.7,2.5c0.6,0.3,1.6,0.4,2.8,0.4c1.6,0,2.7-0.2,3.4-1c0.6-0.6,1.1-1.5,1.6-3L177.7,383.6z M152.8,380.1h-5.6
		c0.9-2.4,1.9-5,2.9-7.4h0.1L152.8,380.1z M160.9,388.4v-0.9c-2-0.2-2.4-0.5-3.4-3.2c-2-5.2-4-10.5-5.9-15.8l-1.1,0.3l-6.4,15.6
		c-1.1,2.6-1.5,2.8-3.5,3.2v0.9h6.7v-0.9c-2.3-0.2-2.6-0.6-1.9-2.4c0.4-1.2,0.8-2.3,1.3-3.7h6.6c0.7,1.7,1.2,3.2,1.6,4.4
		c0.4,1.2,0.2,1.5-1.7,1.7v0.9H160.9z M140.5,373.9c-0.3-1.5-0.7-2.3-1-2.8c-0.5-0.7-1.1-0.9-3.4-0.9h-2.1v14.5
		c0,2.4,0.3,2.7,3.2,2.9v0.9h-9v-0.9c2.8-0.2,3.1-0.5,3.1-2.9v-14.5h-1.8c-2.7,0-3.3,0.3-3.7,0.9c-0.4,0.5-0.6,1.4-1,2.8h-0.9
		c0.1-1.9,0.3-3.9,0.3-5.6h0.7c0.4,0.7,0.8,0.7,1.7,0.7h12.4c0.8,0,1.1-0.2,1.6-0.7h0.6c0,1.4,0.2,3.6,0.3,5.5L140.5,373.9z
		 M121.8,388.4v-0.9c-2.5-0.2-2.7-0.4-2.7-2.9v-11.8c0-2.6,0.3-2.8,2.7-2.9V369h-8.3v0.9c2.5,0.2,2.8,0.3,2.8,2.9v11.8
		c0,2.6-0.3,2.8-2.8,2.9v0.9H121.8z M358,332c-0.5,0-1.8,0-3.4-0.3c-2.2-0.3-6-1.3-10.7-6.3c-5.1-5.4-11.1-13.3-18.3-22.6
		c7.9-7.3,10.6-13.8,10.6-20.3c0-6.1-3.9-10.4-6.1-12c-4.7-3.3-10.6-3.9-16.1-3.9c-2.7,0-9.4,0.3-10.4,0.3c-0.4,0-6-0.3-9.9-0.3
		c-1,0-1.4,0.2-1.4,0.7c0,0.3,0.3,0.5,0.7,0.5c0.8,0,2.3,0.1,3,0.3c2.9,0.6,3.6,2,3.8,5c0.2,2.8,0.2,5.3,0.2,19v15.5
		c0,8.5,0,15.4-0.4,19.1c-0.4,2.6-0.8,4.5-2.6,4.9c-0.8,0.2-1.9,0.4-2.6,0.4c-0.5,0-0.7,0.3-0.7,0.5c0,0.5,0.4,0.7,1.4,0.7
		c2.6,0,8.2-0.3,8.3-0.3c0.5,0,6,0.3,10.8,0.3c1,0,1.4-0.3,1.4-0.7c0-0.3-0.2-0.5-0.7-0.5c-0.8,0-2.7-0.2-4-0.4
		c-2.7-0.4-3.2-2.3-3.4-4.9c-0.4-3.7-0.4-10.7-0.4-19.1v-2.1c0-0.4,0.2-0.7,0.6-0.7l10.8,0.2c0.5,0,0.8,0.2,1.2,0.5
		c1.8,2.3,5.9,8.2,9.6,13.1c5,6.6,8.1,10.9,11.9,13c2.3,1.2,4.5,1.7,9.4,1.7h6.3c1.6,0,2.1-0.2,2.1-0.7
		C358.8,332.3,358.4,332,358,332 M323.4,300.7c-2,1.4-4.5,1.7-6.6,1.7c-3.9,0-7.9-0.6-9.2-1.4c-0.4-0.3-0.6-0.6-0.6-1.1v-28.8
		c0-0.5,0.3-0.9,0.7-1c0.9-0.3,3.2-0.5,5.9-0.5c9.4,0,15.2,6.6,15.2,17.6C328.7,293.8,326.4,298.5,323.4,300.7 M419.2,292.9l4.2,4.2
		l-4.2,4.2l-4.3-4.2L419.2,292.9z M128.8,297.1l4.2,4.2l4.2-4.2l-4.2-4.2L128.8,297.1z M590.6,264.9c-24.3,0-34.7,20.2-34.7,34.4
		c0,15.8,10,34.6,34.2,34.6c21.2,0,35.1-16.3,35.1-36C625.2,277.4,610.4,264.9,590.6,264.9 M592.5,330.6
		c-15.9,0-28.2-13.2-28.2-33.7c0-19.3,11-29,25.7-29c13.9,0,26.8,11.3,26.8,32.5C616.8,326,600.4,330.6,592.5,330.6 M145.1,320.8
		c-0.4,0-0.6,0.3-0.8,1.3c-0.6,3.6-1.7,5.4-4,6.3c-2.3,1-6.2,1-8.5,1c-8.6,0-10-1.1-10.2-7.2c-0.1-1.9,0-51.8,0-51.8
		c0-0.6,0.2-0.9,0.5-0.9c1,0,10.6,0.1,12.1,0.3c4.7,0.5,5.6,1.6,6.2,3c0.4,1.1,0.5,2.5,0.5,3.2c0,0.7,0.2,1.2,0.7,1.2
		c0.3,0,0.5-0.5,0.6-1c0.2-1.1,0.4-4.9,0.4-5.8c0.3-2.4,0.7-3.5,0.7-4.1c0-0.4-0.1-0.8-0.4-0.8c-0.4,0-0.8,0.3-1.2,0.4
		c-0.7,0.2-2.1,0.3-3.8,0.4c-2,0.1-19.6,0.1-20.2,0.1c-0.4,0-6-0.3-10-0.3c-1,0-1.4,0.2-1.4,0.7c0,0.4,0.4,0.5,0.7,0.5
		c0.8,0,2.3,0.1,3,0.3c2.9,0.6,3.6,2,3.8,5c0.2,2.8,0.2,5.3,0.2,19v15.5c0,8.5,0,15.4-0.4,19.1c-0.4,2.5-0.8,4.5-2.6,4.8
		c-0.8,0.2-1.8,0.4-2.6,0.4c-0.5,0-0.7,0.3-0.7,0.5c0,0.5,0.4,0.7,1.4,0.7c2.6,0,8.2-0.3,8.6-0.3c2.6,0,8.5,0.5,21.8,0.5
		c3.4,0,4.1,0,4.8-2.3c0.4-1.9,1.2-7.8,1.2-8.5C145.7,321.5,145.7,320.8,145.1,320.8 M524.9,265.5c-0.7,0-3.1,0.9-8.7,0.9h-33
		c-1.1,0-4.4-0.2-7-0.4c-2.4-0.2-3.2-1.1-3.9-1.1c-0.3,0-0.7,1.2-0.9,1.7c-0.2,0.7-1.9,8.3-1.9,9.2c0,0.5,0.2,0.8,0.4,0.8
		c0.4,0,0.6-0.2,0.9-0.9c0.3-0.6,0.5-1.2,1.5-2.7c1.4-2.1,3.5-2.7,9-2.8l13-0.2v37.2c0,8.5,0,15.4-0.4,19.1
		c-0.4,2.5-0.8,4.5-2.6,4.8c-0.8,0.2-1.8,0.4-2.6,0.4c-0.5,0-0.7,0.3-0.7,0.5c0,0.5,0.5,0.7,1.4,0.7c2.6,0,8.2-0.3,8.6-0.3
		c0.4,0,6,0.3,10.8,0.3c1,0,1.4-0.3,1.4-0.7c0-0.3-0.2-0.5-0.7-0.5c-0.8,0-2.7-0.2-4-0.4c-2.6-0.3-3.2-2.3-3.4-4.8
		c-0.4-3.7-0.4-10.7-0.4-19.1v-37.2l11.1,0.2c8.5,0.2,10.5,2.2,10.8,4.8l0.1,1c0.1,1.2,0.3,1.5,0.7,1.5c0.4,0,0.6-0.4,0.6-1.2
		c0-1,0.3-7,0.3-9.7C525.3,266,525.3,265.5,524.9,265.5 M48.5,294.9L46,293c-8.3-6.8-10.7-9.8-10.7-14.8c0-6.4,4.8-10.2,10.8-10.2
		c8.1,0,10.5,3.7,11,4.7c0.5,1,1.1,3.3,1.1,4.4c0.1,0.7,0.2,1.2,0.7,1.2c0.4,0,0.6-0.6,0.6-2c0-6,0.4-8.9,0.4-9.4
		c0-0.4-0.2-0.6-0.9-0.6s-1.4-0.1-3.1-0.4c-2.2-0.5-4.8-0.9-8.2-0.9c-11.2,0-18.2,6.4-18.2,15.9c0,6,2.1,11.4,11.4,19.1l4,3.3
		c7.6,6.2,10.1,9.8,10.1,15.8c0,5.6-4.1,11.7-12.6,11.7c-5.9,0-11.7-2.5-13.1-9c-0.3-1.2-0.3-2.5-0.3-3.3c0-0.7-0.1-1-0.6-1
		c-0.4,0-0.6,0.4-0.7,1.4c-0.1,1.4-0.4,4.9-0.4,9.3c0,2.4,0.1,2.7,1.3,3.4c3.6,1.7,7.7,2.4,11.8,2.4c4.8,0,9.5-1,13.3-3.7
		c6.1-4.3,7.5-11,7.5-14.7C61.3,308.6,58.9,303.1,48.5,294.9 M251.9,299.7c-2.7,0-8.2,0.3-8.6,0.3s-6-0.3-9.9-0.3
		c-1,0-1.4,0.2-1.4,0.7c0,0.4,0.4,0.5,0.7,0.5c0.8,0,2.3,0.1,3,0.3c3.5,1,4,1.9,4,9.1v15c0,1.5-0.6,2.5-1.8,3.1
		c-2.3,1.3-6.9,1.9-10,1.9c-8.1,0-16.1-2.6-23.1-9.4c-3.1-3-9.3-12-9.3-24.4c0-10.3,3.6-18.3,8.7-22.4c6.7-5.3,13.3-5.8,18.8-5.8
		c11.4,0,18.5,3.8,20.7,7.1c1.3,2.1,1.8,4.6,1.9,5.8c0.1,0.8,0.2,1.3,0.6,1.3c0.6,0,0.8-0.4,0.8-1.9c0-8.8,0.6-11.3,0.6-12.5
		c0-0.4-0.2-0.7-1.1-0.8c-2.2-0.1-5.3-0.4-7.1-0.9c-1.7-0.3-7.9-1.5-13.5-1.5c-6.8,0-15.5,0.6-23.4,5.5c-7.8,4.9-14.7,14.9-14.7,29
		c0,11,5.1,20.4,10.5,25.1c9.8,8.6,22.3,9.4,29,9.4c5.1,0,13-1,18.7-4c1.1-0.6,1.2-0.8,1.2-4.8v-9.9c0-3.7,0-6.3,0.2-9.2
		c0.2-3.1,0.9-4.6,3.3-5c1.1-0.2,1.6-0.3,2.2-0.3c0.3,0,0.7-0.2,0.7-0.5C253.3,299.8,252.9,299.7,251.9,299.7 M430.9,320.8
		c-0.4,0-0.6,0.3-0.8,1.3c-0.6,3.6-1.7,5.4-4,6.3c-2.3,1-6.2,1-8.5,1c-8.6,0-10-1.1-10.2-7.2c-0.1-1.9,0-51.8,0-51.8
		c0-0.6,0.2-0.9,0.5-0.9c1,0,10.6,0.1,12.1,0.3c4.8,0.5,5.6,1.6,6.2,3c0.4,1.1,0.5,2.5,0.5,3.2c0,0.7,0.2,1.2,0.7,1.2
		c0.4,0,0.5-0.5,0.6-1c0.2-1.1,0.4-4.9,0.5-5.8c0.3-2.4,0.7-3.5,0.7-4.1c0-0.4-0.1-0.8-0.4-0.8c-0.4,0-0.8,0.3-1.2,0.4
		c-0.7,0.2-2.1,0.3-3.8,0.4c-2,0.1-19.6,0.1-20.2,0.1c-0.4,0-6-0.3-9.9-0.3c-1,0-1.4,0.2-1.4,0.7c0,0.4,0.4,0.5,0.7,0.5
		c0.8,0,2.3,0.1,3,0.3c2.9,0.6,3.6,2,3.8,5c0.2,2.8,0.2,5.3,0.2,19v15.5c0,8.5,0,15.4-0.4,19.1c-0.4,2.5-0.8,4.5-2.6,4.8
		c-0.8,0.2-1.9,0.4-2.6,0.4c-0.5,0-0.7,0.3-0.7,0.5c0,0.5,0.4,0.7,1.4,0.7c2.6,0,8.2-0.3,8.6-0.3c2.6,0,8.5,0.5,21.8,0.5
		c3.4,0,4.1,0,4.8-2.3c0.4-1.9,1.2-7.8,1.2-8.5C431.5,321.5,431.5,320.8,430.9,320.8" fill="#B5986D"/>
</g>
</svg>
